<?xml version="1.0" encoding="iso-8859-1"?>
<!-- Generator: Adobe Illustrator 19.0.0, SVG Export Plug-In . SVG Version: 6.00 Build 0)  -->
<svg version="1.1" id="Layer_1" xmlns="http://www.w3.org/2000/svg" xmlns:xlink="http://www.w3.org/1999/xlink" x="0px" y="0px"
	 viewBox="0 0 512 512" style="enable-background:new 0 0 512 512;" xml:space="preserve">
<g>
	<g>
		<path d="M255.999,49.021c-52.56,0-95.319,42.76-95.319,95.319c0,52.56,42.761,95.319,95.32,95.319
			c19.213,0,37.739-5.698,53.576-16.479c3.73-2.539,4.695-7.621,2.156-11.351c-2.54-3.73-7.621-4.695-11.351-2.156
			c-6.226,4.239-12.958,7.516-20.013,9.802c8.214-16.598,12.817-41.458,13.628-66.964h40.555
			c-1.333,12.971-5.829,25.356-13.218,36.209c-2.539,3.73-1.574,8.812,2.156,11.351c3.731,2.54,8.813,1.574,11.351-2.156
			c10.78-15.837,16.479-34.363,16.479-53.576C351.318,91.781,308.558,49.021,255.999,49.021z M177.443,152.511h40.561
			c0.81,25.493,5.41,50.343,13.616,66.94C202.46,209.962,180.689,183.951,177.443,152.511z M218.004,136.17h-40.561
			c3.246-31.44,25.017-57.452,54.177-66.94C223.414,85.828,218.815,110.676,218.004,136.17z M269.457,203.308
			c-5.047,14.682-10.813,20.012-13.457,20.012c-2.644,0-8.41-5.329-13.457-20.012c-4.713-13.711-7.567-31.512-8.196-50.797h43.307
			C277.024,171.797,274.169,189.598,269.457,203.308z M234.347,136.17c0.63-19.286,3.484-37.087,8.196-50.797
			C247.59,70.691,253.356,65.362,256,65.362c2.644,0,8.41,5.329,13.457,20.012c4.713,13.711,7.567,31.512,8.196,50.797H234.347z
			 M293.996,136.17c-0.81-25.493-5.41-50.343-13.616-66.94c29.16,9.488,50.931,35.5,54.177,66.94H293.996z"/>
	</g>
</g>
<g>
	<g>
		<path d="M367.66,370.383H272.34c-4.512,0-8.17,3.658-8.17,8.17c0,4.512,3.658,8.17,8.17,8.17h95.319c4.512,0,8.17-3.658,8.17-8.17
			C375.83,374.041,372.172,370.383,367.66,370.383z"/>
	</g>
</g>
<g>
	<g>
		<path d="M239.66,370.383H144.34c-4.512,0-8.17,3.658-8.17,8.17c0,4.512,3.658,8.17,8.17,8.17h95.319c4.512,0,8.17-3.658,8.17-8.17
			C247.83,374.041,244.172,370.383,239.66,370.383z"/>
	</g>
</g>
<g>
	<g>
		<path d="M367.66,321.362H272.34c-4.512,0-8.17,3.658-8.17,8.17s3.658,8.17,8.17,8.17h95.319c4.512,0,8.17-3.658,8.17-8.17
			S372.172,321.362,367.66,321.362z"/>
	</g>
</g>
<g>
	<g>
		<path d="M239.66,321.362H144.34c-4.512,0-8.17,3.658-8.17,8.17s3.658,8.17,8.17,8.17h95.319c4.512,0,8.17-3.658,8.17-8.17
			S244.172,321.362,239.66,321.362z"/>
	</g>
</g>
<g>
	<g>
		<path d="M367.66,272.34H272.34c-4.512,0-8.17,3.658-8.17,8.17c0,4.512,3.658,8.17,8.17,8.17h95.319c4.512,0,8.17-3.658,8.17-8.17
			C375.83,275.999,372.172,272.34,367.66,272.34z"/>
	</g>
</g>
<g>
	<g>
		<path d="M239.66,272.34H144.34c-4.512,0-8.17,3.658-8.17,8.17c0,4.512,3.658,8.17,8.17,8.17h95.319c4.512,0,8.17-3.658,8.17-8.17
			C247.83,275.999,244.172,272.34,239.66,272.34z"/>
	</g>
</g>
<g>
	<g>
		<path d="M503.83,419.404H182.468c-4.512,0-8.17,3.658-8.17,8.17v32.681c0,19.521-15.883,35.404-35.404,35.404
			s-35.404-15.883-35.404-35.404V51.745c0-13.687-5.351-26.14-14.059-35.404h283.676c19.521,0,35.404,15.883,35.404,35.404v343.149
			c0,4.512,3.658,8.17,8.17,8.17s8.17-3.658,8.17-8.17V51.745C424.851,23.213,401.638,0,373.106,0H51.745
			C23.213,0,0,23.213,0,51.745v32.681c0,4.512,3.658,8.17,8.17,8.17h54.468c4.512,0,8.17-3.658,8.17-8.17s-3.658-8.17-8.17-8.17
			H16.34V51.745c0-19.521,15.883-35.404,35.404-35.404s35.404,15.883,35.404,35.404v408.511c0,28.531,23.213,51.745,51.745,51.745
			h321.362C488.787,512,512,488.787,512,460.255v-32.681C512,423.062,508.342,419.404,503.83,419.404z M495.66,460.255
			c0,19.521-15.883,35.404-35.404,35.404H176.598c8.703-9.263,14.041-21.722,14.041-35.404v-24.511H495.66V460.255z"/>
	</g>
</g>
<g>
</g>
<g>
</g>
<g>
</g>
<g>
</g>
<g>
</g>
<g>
</g>
<g>
</g>
<g>
</g>
<g>
</g>
<g>
</g>
<g>
</g>
<g>
</g>
<g>
</g>
<g>
</g>
<g>
</g>
</svg>
